<?xml version="1.0" encoding="UTF-8"?>
<svg width="64px" height="64px" viewBox="0 0 64 64" version="1.1" xmlns="http://www.w3.org/2000/svg" xmlns:xlink="http://www.w3.org/1999/xlink">
    <title>E670CDC3-E3BD-480A-AEBB-3A0CAF1B0385</title>
    <g id="Project-Page" stroke="none" stroke-width="1" fill="none" fill-rule="evenodd">
        <g id="01-00-Strona-Glowna" transform="translate(-808.000000, -3580.000000)">
            <g id="section--seo-icons" transform="translate(256.000000, 3580.000000)">
                <g id="icons/seo/dicretia" transform="translate(552.000000, 0.000000)">
                    <path d="M20.5110816,-8.28672246e-16 L43.4889184,8.28672246e-16 C50.6210683,-4.81482439e-16 53.2073582,0.742604889 55.8147656,2.13706163 C58.422173,3.53151837 60.4684816,5.57782696 61.8629384,8.18523437 C63.2573951,10.7926418 64,13.3789317 64,20.5110816 L64,43.4889184 C64,50.6210683 63.2573951,53.2073582 61.8629384,55.8147656 C60.4684816,58.422173 58.422173,60.4684816 55.8147656,61.8629384 C53.2073582,63.2573951 50.6210683,64 43.4889184,64 L20.5110816,64 C13.3789317,64 10.7926418,63.2573951 8.18523437,61.8629384 C5.57782696,60.4684816 3.53151837,58.422173 2.13706163,55.8147656 C0.742604889,53.2073582 3.20988293e-16,50.6210683 -5.52448164e-16,43.4889184 L5.52448164e-16,20.5110816 C-3.20988293e-16,13.3789317 0.742604889,10.7926418 2.13706163,8.18523437 C3.53151837,5.57782696 5.57782696,3.53151837 8.18523437,2.13706163 C10.7926418,0.742604889 13.3789317,4.81482439e-16 20.5110816,-8.28672246e-16 Z" id="Rectangle" fill="#F4F7F9"></path>
                    <g id="volume-x" transform="translate(22.000000, 25.000000)" fill="#0E0E0E" fill-rule="nonzero">
                        <path d="M8.37530495,-0.780868809 L3.649,3 L0,3 C-0.55228475,3 -1,3.44771525 -1,4 L-1,10 L-0.993272269,10.1166211 C-0.935507161,10.6139598 -0.512835839,11 0,11 L3.65,11 L8.37530495,14.7808688 C9.0300683,15.3046795 10,14.8385062 10,14 L10,6.66133815e-16 C10,-0.838506208 9.0300683,-1.30467949 8.37530495,-0.780868809 Z M8,2.079 L8,11.92 L4.62469505,9.21913119 L4.51343742,9.14187098 C4.35898736,9.04945968 4.1816572,9 4,9 L1,9 L1,5 L4,5 C4.2270715,5 4.447382,4.92271925 4.62469505,4.78086881 L8,2.079 Z" id="Path"></path>
                        <path d="M20.2928932,3.29289322 C20.6834175,2.90236893 21.3165825,2.90236893 21.7071068,3.29289322 C22.0675907,3.65337718 22.0953203,4.22060824 21.7902954,4.61289944 L21.7071068,4.70710678 L15.7071068,10.7071068 C15.3165825,11.0976311 14.6834175,11.0976311 14.2928932,10.7071068 C13.9324093,10.3466228 13.9046797,9.77939176 14.2097046,9.38710056 L14.2928932,9.29289322 L20.2928932,3.29289322 Z" id="Path"></path>
                        <path d="M14.2928932,3.29289322 C14.6533772,2.93240926 15.2206082,2.90467972 15.6128994,3.20970461 L15.7071068,3.29289322 L21.7071068,9.29289322 C22.0976311,9.68341751 22.0976311,10.3165825 21.7071068,10.7071068 C21.3466228,11.0675907 20.7793918,11.0953203 20.3871006,10.7902954 L20.2928932,10.7071068 L14.2928932,4.70710678 C13.9023689,4.31658249 13.9023689,3.68341751 14.2928932,3.29289322 Z" id="Path"></path>
                    </g>
                </g>
            </g>
        </g>
    </g>
</svg>