<?xml version="1.0" encoding="UTF-8"?>
<svg width="32px" height="32px" viewBox="0 0 32 32" version="1.1" xmlns="http://www.w3.org/2000/svg" xmlns:xlink="http://www.w3.org/1999/xlink">
    <title>76A40FCB-50A6-4FDA-BA44-60146BCD3C63</title>
    <g id="Project-Page" stroke="none" stroke-width="1" fill="none" fill-rule="evenodd">
        <g id="01-00-Strona-Glowna" transform="translate(-1344.000000, -4864.000000)" fill="#4432FF" fill-rule="nonzero">
            <g id="footer" transform="translate(0.000000, 4812.000000)">
                <g id="icons/social/facebook" transform="translate(1344.000000, 52.000000)">
                    <path d="M17.036566,-0.000988646803 L18.1909904,0.000932664538 C19.6598609,0.00497421087 20.4654859,0.0150558704 21.1771704,0.0366784605 L21.4253796,0.0447981282 C21.7946234,0.0577233136 22.15631,0.0740645368 22.5949139,0.0946380193 C24.2989958,0.174646007 25.4590515,0.441872684 26.4799005,0.838712301 C27.5359513,1.24515288 28.425594,1.79560783 29.3152367,2.68369649 C30.1288758,3.48361635 30.7585061,4.45121694 31.1601253,5.51917956 C31.5553443,6.53848132 31.8241572,7.70019729 31.9041611,9.40436742 C31.97077,10.9151925 31.9947006,11.513408 31.9993005,14.6512929 L31.9999557,15.2912654 C32.0000267,15.4035219 32.0000792,15.518653 32.000114,15.6367745 L32.0001657,16.0002259 C32.0001657,16.2486621 32.0001135,16.4846733 32,16.7091864 L31.9990461,17.6450128 C31.9942879,20.526588 31.9727358,21.1339956 31.9041611,22.5960844 C31.8241572,24.3002545 31.5553443,25.4603703 31.1601253,26.4812722 C30.7596261,27.5498589 30.1298359,28.5176355 29.3152367,29.3167553 C28.5151983,30.1301165 27.5476318,30.7597794 26.4799005,31.1617395 C25.4606516,31.556979 24.2989958,31.8258058 22.5949139,31.9058138 C22.15631,31.9251529 21.7946234,31.9408945 21.4253796,31.9536101 L21.1771704,31.9616451 C20.8294753,31.9721642 20.4593582,31.9802145 20.0004327,31.9862449 L19.9995893,22.0008249 L23.9997814,22.0008249 L25.9998775,17.0003257 L19.9995893,17.0003257 L19.9995893,12.9999264 C19.9995893,11.8958161 20.8956323,10.9997267 21.9996853,10.9997267 L23.9997814,10.9997267 L23.9997814,5.99922748 L19.9995893,5.99922748 C16.6854301,5.99922748 13.999301,8.68549566 13.999301,11.9998265 L13.999301,17.0003257 L9.99910888,17.0003257 L9.99910888,22.0008249 L13.999301,22.0008249 L13.9978071,32 C12.3174926,31.9961016 11.470544,31.9851618 10.6968917,31.9598367 L10.4504974,31.9512176 C10.1228464,31.9390449 9.79375044,31.9241013 9.40388029,31.9058138 C7.69979843,31.8258058 6.53974271,31.556979 5.51889367,31.1617395 C4.45057035,30.7608995 3.48284387,30.1310766 2.68355748,29.3167553 C1.86977439,28.5169955 1.24017614,27.5493789 0.838668857,26.4812722 C0.441849796,25.4619705 0.17463696,24.3002545 0.0946331171,22.5960844 C0.0323215526,21.1827318 0.00735904737,20.5680315 0.000631671159,17.9257057 L-0.000891863249,17.0374485 C-0.00100079909,16.9308251 -0.0010904034,16.821443 -0.00116145987,16.7091864 L-0.00120579553,15.2912654 C-0.00114906977,15.1790088 -0.00107704299,15.0696267 -0.000988595592,14.9630033 L0.000932616227,13.8085191 C0.00758893596,11.3890776 0.0306300427,10.7689837 0.0946331171,9.40436742 C0.17463696,7.69859713 0.441849796,6.54008148 0.838668857,5.51917956 C1.23907209,4.45056088 1.86879834,3.48268825 2.68355748,2.68369649 C3.48306788,1.86958321 4.45073036,1.23992035 5.51889367,0.838712301 C6.53974271,0.441872684 7.69819835,0.174646007 9.40388029,0.0946380193 C10.8171596,0.0323232269 11.4318281,0.00735942858 14.0740171,0.00063170388 L14.9622282,-0.000891909449 C15.0688461,-0.00100085094 15.1782225,-0.00109045988 15.2904733,-0.00116152004 L16.7083209,-0.00120585799 C16.8205717,-0.0011491293 16.9299481,-0.00107709878 17.036566,-0.000988646803 Z" id="Shape"></path>
                </g>
            </g>
        </g>
    </g>
</svg>